<svg width="35" height="35" viewBox="0 0 35 35" fill="none" xmlns="http://www.w3.org/2000/svg">
<path fill-rule="evenodd" clip-rule="evenodd" d="M17.1182 0.5C14.3179 0.5 12.0643 2.75351 7.55731 7.26056L6.76056 8.05731C2.25352 12.5643 0 14.8179 0 17.6182C0 20.4185 2.25352 22.672 6.76056 27.1791L7.55731 27.9757C12.0643 32.4828 14.3179 34.7363 17.1182 34.7363C19.9185 34.7363 22.172 32.4828 26.6791 27.9757L27.4757 27.1791C31.9828 22.672 34.2363 20.4185 34.2363 17.6182C34.2363 14.8179 31.9828 12.5643 27.4757 8.05731L26.6791 7.26056C22.172 2.75351 19.9185 0.5 17.1182 0.5ZM17.1182 9.24071C15.718 9.24071 14.5913 10.3674 12.3377 12.621L11.9394 13.0193C9.68581 15.2729 8.55911 16.3996 8.55911 17.7998C8.55911 19.1999 9.68581 20.3267 11.9394 22.5802L12.3377 22.9786C14.5913 25.2321 15.718 26.3588 17.1182 26.3588C18.5183 26.3588 19.6451 25.2321 21.8986 22.9786L22.297 22.5802C24.5505 20.3267 25.6771 19.1999 25.6771 17.7998C25.6771 16.3996 24.5505 15.2729 22.297 13.0193L21.8986 12.621C19.6451 10.3674 18.5183 9.24071 17.1182 9.24071Z" fill="#F5F5F5"/>
<path d="M28.1934 34.5206C25.8779 34.5206 24.7203 34.5206 24.4321 33.8251C24.144 33.1296 24.9626 32.311 26.5999 30.6736L30.1734 27.1001C31.8106 25.4629 32.6295 24.6443 33.325 24.9324C34.0205 25.2205 34.0205 26.3781 34.0205 28.6936V32.2671C34.0205 33.3296 34.0205 33.8606 33.6906 34.1908C33.3605 34.5206 32.8292 34.5206 31.767 34.5206H28.1934Z" fill="#F5F5F5"/>
</svg>
